<svg width="1521.8001464843749px" height="170.6px" xmlns="http://www.w3.org/2000/svg" viewBox="-510.90007324218743 -10.299999999999997 1521.8001464843749 170.6" style="background: rgb(0, 0, 0);" preserveAspectRatio="xMidYMid"><defs><filter id="editing-vr"><feFlood flood-color="#00ff27" flood-opacity="0.7" result="c1"></feFlood><feFlood flood-color="#000000" flood-opacity="0.7" result="c3"></feFlood><feComposite operator="in" in="c1" in2="SourceAlpha" result="text-c1"></feComposite><feComposite operator="in" in="c3" in2="SourceAlpha" result="text-c3"></feComposite><feOffset in="text-c1" dx="5" dy="-1" result="text1"></feOffset><feOffset in="text-c3" dx="-5" dy="1" result="text3"></feOffset><feBlend in="SourceGraphic" in2="text1" mode="multiply" result="text4"></feBlend><feBlend in="text4" in2="text3" mode="multiply"></feBlend></filter></defs><g filter="url(#editing-vr)"><g transform="translate(-297.8955454826355, 108.34500312805176)"><path d="M43.32 1.90L43.32 1.90L43.32 1.90Q31.16 1.90 30.02-15.39L30.02-15.39L13.68-15.39L13.68-15.39Q11.78-11.02 10.45-7.22L10.45-7.22L7.98 0L-5.32 0L24.61-62.70L45.03-62.70L49.02-16.53L49.02-16.53Q49.97-6.55 53.77-3.61L53.77-3.61L53.77-3.61Q51.02 1.90 43.32 1.90ZM21.85-34.39L16.63-22.32L29.73-22.32L28.59-46.74L28.59-49.30L21.85-34.39ZM69.06 0L58.62 0L70.02-62.70L90.44-62.70L105.26-19.57L113.15-62.70L123.69-62.61L112.10 0L90.34 0L76.66-41.52L69.06 0ZM187.72-39.42L187.72-39.42L187.72-39.42Q187.72 1.04 143.83 1.04L143.83 1.04L143.83 1.04Q136.80 1.04 125.21-0.67L125.21-0.67L135.85-56.81L135.85-56.81Q136.61-60.61 137.08-62.80L137.08-62.80L137.08-62.80Q151.52-63.84 157.94-63.84L157.94-63.84L157.94-63.84Q164.35-63.84 170.24-62.51L170.24-62.51L170.24-62.51Q176.13-61.18 180.02-58.23L180.02-58.23L180.02-58.23Q187.72-52.44 187.72-39.42ZM168.15-42.94L168.15-42.94L168.15-42.94Q168.15-57.09 157.98-57.09L157.98-57.09L157.03-57.09L157.03-57.09Q156.56-57.09 156.08-57L156.08-57L146.30-5.99L146.30-5.99Q146.68-5.79 147.06-5.79L147.06-5.79L147.82-5.79L147.82-5.79Q151.33-5.79 154.99-7.98L154.99-7.98L154.99-7.98Q158.65-10.17 161.50-14.63L161.50-14.63L161.50-14.63Q168.15-24.98 168.15-42.94ZM212.04 0L191.71 0L203.30-62.41L203.30-62.41Q212.70-63.46 226.43-63.46L226.43-63.46L226.43-63.46Q240.16-63.46 246.52-59.47L246.52-59.47L246.52-59.47Q252.89-55.48 252.89-47.45L252.89-47.45L252.89-47.45Q252.89-39.42 248.76-34.39L248.76-34.39L248.76-34.39Q244.63-29.36 237.50-27.74L237.50-27.74L237.50-27.74Q239.11-19.86 242.82-13.49L242.82-13.49L242.82-13.49Q246.24-7.50 250.23-5.61L250.23-5.61L250.23-5.61Q248.81-1.61 245.91 0.14L245.91 0.14L245.91 0.14Q243.01 1.90 238.88 1.90L238.88 1.90L238.88 1.90Q234.75 1.90 231.51-0.52L231.51-0.52L231.51-0.52Q228.28-2.94 225.72-7.41L225.72-7.41L225.72-7.41Q220.30-17.10 219.73-32.40L219.73-32.40L220.40-32.40L220.40-32.40Q227.43-32.59 230.94-36.24L230.94-36.24L230.94-36.24Q234.46-39.90 234.46-47.59L234.46-47.59L234.46-47.59Q234.46-57.19 226.38-57.57L226.38-57.57L224.29-57.57L224.29-57.57Q223.44-57.57 222.96-57.48L222.96-57.48L212.04 0ZM258.69-23.18L258.69-23.18L258.69-23.18Q258.69-41.13 268.00-52.44L268.00-52.44L268.00-52.44Q277.88-64.70 295.07-64.70L295.07-64.70L295.07-64.70Q307.51-64.70 313.78-58.66L313.78-58.66L313.78-58.66Q320.05-52.63 320.05-39.90L320.05-39.90L320.05-39.90Q320.05-20.52 310.17-9.21L310.17-9.21L310.17-9.21Q300.39 1.90 283.95 1.90L283.95 1.90L283.95 1.90Q271.13 1.90 264.91-4.51L264.91-4.51L264.91-4.51Q258.69-10.93 258.69-23.18ZM283.67-42.84L283.67-42.84L283.67-42.84Q279.39-25.75 279.39-12.26L279.39-12.26L279.39-12.26Q279.39-9.03 280.49-6.94L280.49-6.94L280.49-6.94Q281.58-4.84 284.48-4.84L284.48-4.84L284.48-4.84Q287.38-4.84 289.18-6.22L289.18-6.22L289.18-6.22Q290.99-7.60 292.41-10.73L292.41-10.73L292.41-10.73Q294.69-15.87 296.83-26.74L296.83-26.74L296.83-26.74Q298.96-37.62 299.15-42.13L299.15-42.13L299.15-42.13Q299.34-46.65 299.34-50.06L299.34-50.06L299.34-50.06Q299.34-53.48 298.30-55.67L298.30-55.67L298.30-55.67Q297.25-57.86 294.45-57.86L294.45-57.86L294.45-57.86Q291.65-57.86 289.75-56.15L289.75-56.15L289.75-56.15Q286.23-52.91 283.67-42.84ZM344.38 0L323.66 0L335.73-62.70L356.63-62.70L344.38 0ZM420.37-39.42L420.37-39.42L420.37-39.42Q420.37 1.04 376.48 1.04L376.48 1.04L376.48 1.04Q369.45 1.04 357.86-0.67L357.86-0.67L368.50-56.81L368.50-56.81Q369.26-60.61 369.74-62.80L369.74-62.80L369.74-62.80Q384.18-63.84 390.59-63.84L390.59-63.84L390.59-63.84Q397.00-63.84 402.89-62.51L402.89-62.51L402.89-62.51Q408.78-61.18 412.68-58.23L412.68-58.23L412.68-58.23Q420.37-52.44 420.37-39.42ZM400.80-42.94L400.80-42.94L400.80-42.94Q400.80-57.09 390.64-57.09L390.64-57.09L389.69-57.09L389.69-57.09Q389.21-57.09 388.74-57L388.74-57L378.95-5.99L378.95-5.99Q379.33-5.79 379.71-5.79L379.71-5.79L380.47-5.79L380.47-5.79Q383.99-5.79 387.65-7.98L387.65-7.98L387.65-7.98Q391.30-10.17 394.15-14.63L394.15-14.63L394.15-14.63Q400.80-24.98 400.80-42.94ZM506.44-39.42L506.44-39.42L506.44-39.42Q506.44 1.04 462.55 1.04L462.55 1.04L462.55 1.04Q455.52 1.04 443.93-0.67L443.93-0.67L454.57-56.81L454.57-56.81Q455.33-60.61 455.81-62.80L455.81-62.80L455.81-62.80Q470.25-63.84 476.66-63.84L476.66-63.84L476.66-63.84Q483.07-63.84 488.96-62.51L488.96-62.51L488.96-62.51Q494.85-61.18 498.75-58.23L498.75-58.23L498.75-58.23Q506.44-52.44 506.44-39.42ZM486.87-42.94L486.87-42.94L486.87-42.94Q486.87-57.09 476.71-57.09L476.71-57.09L475.76-57.09L475.76-57.09Q475.28-57.09 474.81-57L474.81-57L465.02-5.99L465.02-5.99Q465.40-5.79 465.78-5.79L465.78-5.79L466.54-5.79L466.54-5.79Q470.06-5.79 473.72-7.98L473.72-7.98L473.72-7.98Q477.37-10.17 480.22-14.63L480.22-14.63L480.22-14.63Q486.87-24.98 486.87-42.94ZM551.85-14.63L551.85-14.63L551.85-14.63Q553.66-12.35 553.66-8.64L553.66-8.64L553.66-8.64Q553.66-3.52 549.86-0.81L549.86-0.81L549.86-0.81Q546.06 1.90 540.07 1.90L540.07 1.90L540.07 1.90Q536.65 1.90 531.43 1.14L531.43 1.14L531.43 1.14Q521.17-0.47 518.03-0.47L518.03-0.47L518.03-0.47Q514.90-0.47 513.66-0.33L513.66-0.33L513.66-0.33Q512.43-0.19 510.43 0L510.43 0L522.12-62.70L563.06-62.70L563.06-62.70Q563.06-56.91 560.26-53.87L560.26-53.87L560.26-53.87Q557.46-50.83 551.95-50.83L551.95-50.83L551.95-50.83Q546.44-50.83 540.83-53.39L540.83-53.39L537.89-36.77L554.80-36.77L554.80-36.77Q554.80-31.73 552.33-28.93L552.33-28.93L552.33-28.93Q549.86-26.13 545.73-26.13L545.73-26.13L545.73-26.13Q541.59-26.13 539.03-27.07L539.03-27.07L539.03-27.07Q536.46-28.02 536.18-28.31L536.18-28.31L532.76-10.36L532.76-10.36Q535.04-10.07 539.31-10.07L539.31-10.07L539.31-10.07Q546.63-10.07 551.85-14.63ZM564.77-58.90L564.77-58.90L564.77-58.90Q567.53-64.60 575.18-64.60L575.18-64.60L575.18-64.60Q582.82-64.60 586.39-60.18L586.39-60.18L586.39-60.18Q589.95-55.77 589.95-45.60L589.95-45.60L589.95-11.69L613.03-62.61L624.34-62.61L594.79 0L572.56 0L569.71-45.60L569.71-45.60Q569.43-50.63 568.05-54.05L568.05-54.05L568.05-54.05Q566.67-57.48 564.77-58.90ZM661.10-14.63L661.10-14.63L661.10-14.63Q662.91-12.35 662.91-8.64L662.91-8.64L662.91-8.64Q662.91-3.52 659.11-0.81L659.11-0.81L659.11-0.81Q655.31 1.90 649.32 1.90L649.32 1.90L649.32 1.90Q645.90 1.90 640.68 1.14L640.68 1.14L640.68 1.14Q630.42-0.47 627.28-0.47L627.28-0.47L627.28-0.47Q624.15-0.47 622.91-0.33L622.91-0.33L622.91-0.33Q621.68-0.19 619.68 0L619.68 0L631.37-62.70L672.31-62.70L672.31-62.70Q672.31-56.91 669.51-53.87L669.51-53.87L669.51-53.87Q666.71-50.83 661.20-50.83L661.20-50.83L661.20-50.83Q655.69-50.83 650.08-53.39L650.08-53.39L647.14-36.77L664.05-36.77L664.05-36.77Q664.05-31.73 661.58-28.93L661.58-28.93L661.58-28.93Q659.11-26.13 654.98-26.13L654.98-26.13L654.98-26.13Q650.84-26.13 648.28-27.07L648.28-27.07L648.28-27.07Q645.71-28.02 645.43-28.31L645.43-28.31L642.01-10.36L642.01-10.36Q644.29-10.07 648.56-10.07L648.56-10.07L648.56-10.07Q655.88-10.07 661.10-14.63ZM711.36-14.63L711.36-14.63L711.36-14.63Q713.16-12.35 713.16-7.93L713.16-7.93L713.16-7.93Q713.16-3.52 709.79-0.81L709.79-0.81L709.79-0.81Q706.42 1.90 700.53 1.90L700.53 1.90L700.53 1.90Q697.11 1.90 691.79 1.14L691.79 1.14L691.79 1.14Q681.34-0.47 678.35-0.47L678.35-0.47L678.35-0.47Q675.36-0.47 674.12-0.33L674.12-0.33L674.12-0.33Q672.88-0.19 670.89 0L670.89 0L682.38-62.70L703.19-62.70L693.69-10.45L693.69-10.45Q694.92-10.26 696.06-10.26L696.06-10.26L698.44-10.26L698.44-10.26Q706.42-10.26 711.36-14.63ZM720.00-23.18L720.00-23.18L720.00-23.18Q720.00-41.13 729.31-52.44L729.31-52.44L729.31-52.44Q739.19-64.70 756.39-64.70L756.39-64.70L756.39-64.70Q768.83-64.70 775.10-58.66L775.10-58.66L775.10-58.66Q781.37-52.63 781.37-39.90L781.37-39.90L781.37-39.90Q781.37-20.52 771.49-9.21L771.49-9.21L771.49-9.21Q761.71 1.90 745.27 1.90L745.27 1.90L745.27 1.90Q732.45 1.90 726.23-4.51L726.23-4.51L726.23-4.51Q720.00-10.93 720.00-23.18ZM744.99-42.84L744.99-42.84L744.99-42.84Q740.71-25.75 740.71-12.26L740.71-12.26L740.71-12.26Q740.71-9.03 741.81-6.94L741.81-6.94L741.81-6.94Q742.90-4.84 745.80-4.84L745.80-4.84L745.80-4.84Q748.69-4.84 750.50-6.22L750.50-6.22L750.50-6.22Q752.30-7.60 753.73-10.73L753.73-10.73L753.73-10.73Q756.01-15.87 758.15-26.74L758.15-26.74L758.15-26.74Q760.28-37.62 760.47-42.13L760.47-42.13L760.47-42.13Q760.66-46.65 760.66-50.06L760.66-50.06L760.66-50.06Q760.66-53.48 759.62-55.67L759.62-55.67L759.62-55.67Q758.57-57.86 755.77-57.86L755.77-57.86L755.77-57.86Q752.97-57.86 751.07-56.15L751.07-56.15L751.07-56.15Q747.55-52.91 744.99-42.84ZM823.17-63.37L823.17-63.37L823.17-63.37Q846.45-63.37 846.45-46.93L846.45-46.93L846.45-46.93Q846.45-37.91 840.65-32.49L840.65-32.49L840.65-32.49Q834.95-27.07 824.98-27.07L824.98-27.07L824.98-27.07Q820.32-27.07 816.71-29.73L816.71-29.73L816.71-29.73Q815.00-30.88 813.87-32.40L813.87-32.40L813.87-32.40Q820.80-32.40 824.46-36.62L824.46-36.62L824.46-36.62Q828.12-40.85 828.12-49.12L828.12-49.12L828.12-49.12Q828.12-57.38 819.94-57.38L819.94-57.38L817.66-57.38L817.66-57.38Q817.09-57.38 816.62-57.29L816.62-57.29L805.69 0L785.08 0L796.76-62.23L796.76-62.23Q806.93-63.18 812.82-63.27L812.82-63.27L812.82-63.27Q818.71-63.37 823.17-63.37ZM855 0L844.07 0L861.27-62.70L881.13-62.70L885.49-26.89L903.16-62.70L919.79-62.70L921.50-15.77L921.50-15.77Q921.88-6.46 926.44-3.61L926.44-3.61L926.44-3.61Q925.39-1.71 922.35 0.10L922.35 0.10L922.35 0.10Q919.31 1.90 915.28 1.90L915.28 1.90L915.28 1.90Q911.24 1.90 908.86 0.76L908.86 0.76L908.86 0.76Q906.49-0.38 905.16-2.28L905.16-2.28L905.16-2.28Q902.78-5.70 902.78-12.26L902.78-12.26L902.78-41.61L884.07 0L872.29 0L865.64-42.66L855 0ZM971.09-14.63L971.09-14.63L971.09-14.63Q972.89-12.35 972.89-8.64L972.89-8.64L972.89-8.64Q972.89-3.52 969.10-0.81L969.10-0.81L969.10-0.81Q965.29 1.90 959.31 1.90L959.31 1.90L959.31 1.90Q955.89 1.90 950.66 1.14L950.66 1.14L950.66 1.14Q940.40-0.47 937.27-0.47L937.27-0.47L937.27-0.47Q934.13-0.47 932.90-0.33L932.90-0.33L932.90-0.33Q931.66-0.19 929.67 0L929.67 0L941.36-62.70L982.30-62.70L982.30-62.70Q982.30-56.91 979.50-53.87L979.50-53.87L979.50-53.87Q976.69-50.83 971.18-50.83L971.18-50.83L971.18-50.83Q965.67-50.83 960.07-53.39L960.07-53.39L957.13-36.77L974.03-36.77L974.03-36.77Q974.03-31.73 971.56-28.93L971.56-28.93L971.56-28.93Q969.10-26.13 964.96-26.13L964.96-26.13L964.96-26.13Q960.83-26.13 958.26-27.07L958.26-27.07L958.26-27.07Q955.70-28.02 955.41-28.31L955.41-28.31L952.00-10.36L952.00-10.36Q954.27-10.07 958.55-10.07L958.55-10.07L958.55-10.07Q965.87-10.07 971.09-14.63ZM991.42 0L980.97 0L992.37-62.70L1012.79-62.70L1027.62-19.57L1035.50-62.70L1046.05-62.61L1034.45 0L1012.70 0L999.02-41.52L991.42 0ZM1056.02-46.27L1056.02-46.27L1056.02-46.27Q1052.79-48.73 1052.79-54.01L1052.79-54.01L1052.79-54.01Q1052.79-59.28 1056.26-62.04L1056.26-62.04L1056.26-62.04Q1059.73-64.79 1065.71-64.79L1065.71-64.79L1065.71-64.79Q1069.51-64.79 1078.54-63.46L1078.54-63.46L1085.00-62.51L1085.00-62.51Q1088.23-62.13 1091.60-62.13L1091.60-62.13L1091.60-62.13Q1094.97-62.13 1097.25-63.55L1097.25-63.55L1097.25-63.55Q1100.67-60.52 1100.67-56.15L1100.67-56.15L1100.67-56.15Q1100.67-51.77 1096.78-48.64L1096.78-48.64L1096.78-48.64Q1092.79-45.31 1087.65-45.31L1087.65-45.31L1087.65-45.31Q1085.19-45.31 1081.20-45.98L1081.20-45.98L1081.20-45.98Q1076.54-31.35 1076.54-21.18L1076.54-21.18L1076.54-21.18Q1076.54-11.02 1081.67-5.70L1081.67-5.70L1081.67-5.70Q1079.30-1.43 1075.78 0.24L1075.78 0.24L1075.78 0.24Q1072.27 1.90 1066.99 1.90L1066.99 1.90L1066.99 1.90Q1061.72 1.90 1058.44-1.00L1058.44-1.00L1058.44-1.00Q1055.16-3.90 1055.16-9.88L1055.16-9.88L1055.16-9.88Q1055.16-16.82 1058.97-28.21L1058.97-28.21L1058.97-28.21Q1062.77-39.52 1068.47-48.16L1068.47-48.16L1068.47-48.16Q1065.71-48.45 1062.86-48.45L1062.86-48.45L1062.86-48.45Q1056.97-48.45 1056.02-46.27Z" fill="#00ff27"></path></g></g><style>text {
  font-size: 64px;
  font-family: Arial Black;
  dominant-baseline: central;
  text-anchor: middle;
}</style></svg>